<?xml version="1.0" standalone="no"?><!DOCTYPE svg PUBLIC "-//W3C//DTD SVG 1.1//EN" "http://www.w3.org/Graphics/SVG/1.1/DTD/svg11.dtd"><svg t="1589184947990" class="icon" viewBox="0 0 1026 1024" version="1.1" xmlns="http://www.w3.org/2000/svg" p-id="2284" xmlns:xlink="http://www.w3.org/1999/xlink" width="200.390625" height="200"><defs><style type="text/css"></style></defs><path d="M223.825137 226.622951h576.349726v576.349727H223.825137z" fill="#FF6464" p-id="2285"></path><path d="M0 447.650273h447.650273V0H0v447.650273zM111.912568 111.912568h223.825137v223.825137H111.912568V111.912568zM579.147541 0v447.650273h447.650273V0H579.147541z m335.737705 335.737705h-223.825137V111.912568h223.825137v223.825137zM0 1024h447.650273V576.349727H0v447.650273z m111.912568-335.737705h223.825137v223.825137H111.912568v-223.825137zM802.972678 576.349727c-123.663388 0-223.825137 100.161749-223.825137 223.825136s100.161749 223.825137 223.825137 223.825137 223.825137-100.161749 223.825136-223.825137-100.161749-223.825137-223.825136-223.825136z m0 335.737705c-61.831694 0-111.912568-50.080874-111.912569-111.912569s50.080874-111.912568 111.912569-111.912568 111.912568 50.080874 111.912568 111.912568-50.080874 111.912568-111.912568 111.912569z" fill="#0D0A16" opacity=".82" p-id="2286"></path></svg>