<?xml version="1.0" standalone="no"?><!DOCTYPE svg PUBLIC "-//W3C//DTD SVG 1.1//EN" "http://www.w3.org/Graphics/SVG/1.1/DTD/svg11.dtd"><svg t="1589542186812" class="icon" viewBox="0 0 1024 1024" version="1.1" xmlns="http://www.w3.org/2000/svg" p-id="2264" xmlns:xlink="http://www.w3.org/1999/xlink" width="200" height="200"><defs><style type="text/css"></style></defs><path d="M1007.833754 455.001446a55.641446 55.641446 0 0 0-30.843373-94.874217L719.633272 322.004819a55.641446 55.641446 0 0 1-41.700241-30.349879L562.208694 58.725783a55.764819 55.764819 0 0 0-99.809157 0l-115.724337 232.929157a55.641446 55.641446 0 0 1-41.700241 30.349879L47.617851 360.003855a55.641446 55.641446 0 0 0-30.843374 94.874217l185.800482 182.099277a55.641446 55.641446 0 0 1 15.915181 49.349398L175.186043 942.573494a55.641446 55.641446 0 0 0 80.686265 58.60241l230.585061-120.535904a55.641446 55.641446 0 0 1 51.57012 0l230.58506 120.535904a55.641446 55.641446 0 0 0 80.809639-58.60241l-43.42747-256.493494a55.641446 55.641446 0 0 1 15.915181-49.349398zM769.599537 692.248675l43.304097 256.493494a17.64241 17.64241 0 0 1-3.947952 15.051566 19.246265 19.246265 0 0 1-14.434699 6.908916 18.629398 18.629398 0 0 1-8.636144-2.220723L555.793272 847.946024a92.776867 92.776867 0 0 0-86.361445 0L238.723393 968.481928a18.629398 18.629398 0 0 1-8.636145 2.220723 19.246265 19.246265 0 0 1-14.434699-6.908916 17.64241 17.64241 0 0 1-3.947951-15.051566l43.304096-256.493494a92.776867 92.776867 0 0 0-26.525301-81.673253L42.682911 428.476145a18.629398 18.629398 0 0 1 10.363373-31.830362l257.357109-37.999036A92.776867 92.776867 0 0 0 379.86267 308.433735l115.724337-233.299277a18.752771 18.752771 0 0 1 33.434217 0L644.745561 308.433735a92.776867 92.776867 0 0 0 69.459278 50.459759l257.357108 37.752289a18.629398 18.629398 0 0 1 10.363373 31.830362L796.124839 610.575422a92.776867 92.776867 0 0 0-26.525302 81.673253z" fill="#666666" p-id="2265"></path><path d="M710.627007 382.457831a117.57494 117.57494 0 0 1-87.965301-63.90747l-98.698795-199.988433a12.337349 12.337349 0 0 0-22.083856 0l-98.698795 199.988433A117.451566 117.451566 0 0 1 313.981224 382.457831L93.14267 415.645301a12.337349 12.337349 0 0 0-6.785542 20.973494l159.398554 156.314217a117.451566 117.451566 0 0 1 33.55759 103.386988l-37.012048 220.098313A12.337349 12.337349 0 0 0 259.696887 929.495904l197.39759-103.386988a117.451566 117.451566 0 0 1 108.692048 0l197.397591 103.386988a12.337349 12.337349 0 0 0 17.889156-12.954217l-37.012048-220.098314a117.328193 117.328193 0 0 1 33.55759-103.386987L938.251104 436.742169a12.337349 12.337349 0 0 0-6.785543-20.973494zM753.190863 566.531084a154.340241 154.340241 0 0 0-44.167711 135.710844l24.674699 146.691084A12.337349 12.337349 0 0 1 716.178814 862.133976L583.799055 793.291566a154.463614 154.463614 0 0 0-142.989879 0L309.046284 862.133976a12.337349 12.337349 0 0 1-17.889156-12.954217l24.674699-146.691084a154.340241 154.340241 0 0 0-44.167711-135.710844l-106.224579-104.127229a12.337349 12.337349 0 0 1 6.785543-20.973494L319.409658 419.46988a154.463614 154.463614 0 0 0 115.724337-84.01735l66.128193-133.243373a12.337349 12.337349 0 0 1 22.083855 0l66.128193 133.243373A154.586988 154.586988 0 0 0 705.198573 419.46988L851.889658 441.430361a12.337349 12.337349 0 0 1 6.785542 20.973494z" fill="#666666" p-id="2266"></path></svg>